<?xml version="1.0" standalone="no"?>
<!DOCTYPE svg PUBLIC "-//W3C//DTD SVG 20010904//EN"
 "http://www.w3.org/TR/2001/REC-SVG-20010904/DTD/svg10.dtd">
<svg version="1.0" xmlns="http://www.w3.org/2000/svg"
 width="260.000000pt" height="260.000000pt" viewBox="0 0 260.000000 260.000000"
 preserveAspectRatio="xMidYMid meet">
<metadata>
Created by potrace 1.11, written by Peter Selinger 2001-2013
</metadata>
<g transform="translate(0.000000,260.000000) scale(0.100000,-0.100000)"
fill="#000000" stroke="none">
<path d="M1268 1937 c-11 -11 -13 -111 -12 -518 1 -277 2 -507 3 -511 0 -4 10
-10 21 -13 34 -11 50 12 50 71 0 30 2 54 5 54 3 0 16 -10 28 -23 29 -31 87
-70 87 -60 0 4 4 3 8 -4 4 -7 37 -20 72 -29 213 -54 423 104 438 330 11 173
-79 317 -236 377 -115 43 -271 11 -357 -72 -17 -16 -34 -29 -37 -29 -4 0 -7
95 -7 212 0 214 -3 227 -38 228 -6 0 -18 -6 -25 -13z m454 -406 c62 -30 117
-87 146 -151 21 -48 23 -66 19 -135 -3 -63 -10 -90 -31 -127 -96 -168 -307
-197 -438 -61 -110 114 -111 296 -3 407 45 47 77 66 132 80 64 16 121 12 175
-13z"/>
<path d="M493 1616 c-92 -30 -166 -98 -212 -195 -23 -49 -26 -69 -26 -156 0
-92 3 -105 31 -165 49 -100 110 -155 209 -189 117 -39 242 -11 333 76 42 40
42 40 43 14 1 -14 0 -38 -1 -52 -1 -28 22 -59 45 -59 32 0 35 38 33 381 -3
313 -4 343 -21 353 -28 18 -52 -4 -54 -50 -1 -21 -2 -46 -2 -55 -1 -12 -11 -7
-37 18 -63 59 -128 86 -219 90 -49 2 -96 -2 -122 -11z m212 -83 c50 -22 107
-79 137 -135 19 -36 23 -59 23 -133 0 -76 -4 -97 -25 -138 -108 -213 -386
-206 -487 11 -31 66 -35 175 -9 236 64 152 221 221 361 159z"/>
<path d="M2273 1040 c-74 -30 -43 -151 37 -146 69 5 98 93 44 135 -29 23 -46
25 -81 11z"/>
</g>
</svg>
